<svg width="1894" height="52" viewBox="0 0 1894 52" fill="none" xmlns="http://www.w3.org/2000/svg">
<g clip-path="url(#clip0_686_3490)">
<path d="M780.024 31.99C780.024 29.125 777.714 26.815 774.849 26.815C771.999 26.815 769.674 29.125 769.674 31.99C769.674 34.84 771.999 37.165 774.849 37.165C777.714 37.165 780.024 34.84 780.024 31.99ZM779.559 31.99C779.559 34.585 777.444 36.7 774.849 36.7C772.254 36.7 770.139 34.585 770.139 31.99C770.139 29.395 772.254 27.28 774.849 27.28C777.444 27.28 779.559 29.395 779.559 31.99ZM776.694 33.82C776.304 34.345 775.599 34.69 774.879 34.69C773.529 34.69 772.314 33.55 772.314 31.975C772.314 30.355 773.529 29.275 774.879 29.275C775.584 29.275 776.304 29.605 776.694 30.13L777.069 29.77C776.544 29.155 775.809 28.78 774.879 28.78C773.154 28.78 771.759 30.145 771.759 31.975C771.759 33.805 773.154 35.185 774.879 35.185C775.809 35.185 776.544 34.825 777.084 34.195L776.694 33.82ZM793.316 37L788.786 31.75L792.956 26.995H791.396L786.971 32.17V26.995H785.726V37H786.971V33.64L787.976 32.5L791.771 37H793.316ZM801.994 37L799.294 32.92C800.659 32.8 801.889 31.81 801.889 30.01C801.889 28.165 800.584 26.995 798.754 26.995H794.734V37H795.979V33.025H797.974L800.524 37H801.994ZM798.604 31.93H795.979V28.105H798.604C799.789 28.105 800.599 28.885 800.599 30.01C800.599 31.135 799.789 31.93 798.604 31.93ZM808.42 37.18C811.375 37.18 813.385 34.96 813.385 32.005C813.385 29.05 811.375 26.83 808.42 26.83C805.45 26.83 803.455 29.05 803.455 32.005C803.455 34.96 805.45 37.18 808.42 37.18ZM808.42 36.07C806.17 36.07 804.745 34.33 804.745 32.005C804.745 29.665 806.17 27.94 808.42 27.94C810.655 27.94 812.095 29.665 812.095 32.005C812.095 34.33 810.655 36.07 808.42 36.07ZM819.567 37L823.602 26.995H822.177L818.802 35.635L815.427 26.995H814.002L818.022 37H819.567ZM832.67 37L828.635 26.995H827.09L823.07 37H824.495L825.38 34.78H830.36L831.245 37H832.67ZM829.985 33.67H825.74L827.87 28.285L829.985 33.67ZM836.687 37V28.105H839.867V26.995H832.277V28.105H835.442V37H836.687ZM845.671 37.18C848.626 37.18 850.636 34.96 850.636 32.005C850.636 29.05 848.626 26.83 845.671 26.83C842.701 26.83 840.706 29.05 840.706 32.005C840.706 34.96 842.701 37.18 845.671 37.18ZM845.671 36.07C843.421 36.07 841.996 34.33 841.996 32.005C841.996 29.665 843.421 27.94 845.671 27.94C847.906 27.94 849.346 29.665 849.346 32.005C849.346 34.33 847.906 36.07 845.671 36.07ZM859.328 33.865V32.875H855.728V33.865H859.328ZM868.533 37V28.105H871.713V26.995H864.123V28.105H867.288V37H868.533ZM874.864 37.18C876.049 37.18 877.024 36.79 877.744 36.07L877.204 35.335C876.634 35.92 875.794 36.25 874.969 36.25C873.409 36.25 872.449 35.11 872.359 33.745H878.224V33.46C878.224 31.285 876.934 29.575 874.744 29.575C872.674 29.575 871.174 31.27 871.174 33.37C871.174 35.635 872.719 37.18 874.864 37.18ZM877.114 32.92H872.359C872.419 31.81 873.184 30.505 874.729 30.505C876.379 30.505 877.099 31.84 877.114 32.92ZM886.046 37L883.256 33.28L885.881 29.755H884.576L882.566 32.515L880.556 29.755H879.251L881.876 33.28L879.101 37H880.391L882.566 34.03L884.741 37H886.046ZM888.466 37V33.76H892.246V37H893.371V29.755H892.246V32.77H888.466V29.755H887.341V37H888.466ZM898.782 37.18C900.987 37.18 902.367 35.47 902.367 33.37C902.367 31.27 900.987 29.575 898.782 29.575C896.577 29.575 895.197 31.27 895.197 33.37C895.197 35.47 896.577 37.18 898.782 37.18ZM898.782 36.175C897.237 36.175 896.367 34.855 896.367 33.37C896.367 31.9 897.237 30.58 898.782 30.58C900.327 30.58 901.182 31.9 901.182 33.37C901.182 34.855 900.327 36.175 898.782 36.175ZM903.346 37.18C904.741 37.18 905.521 36.16 905.851 33.46L906.181 30.745H909.106V37H910.231V29.755H905.191L904.726 33.325C904.441 35.47 904.021 36.25 903.346 36.25V37.18ZM915.643 37.18C917.848 37.18 919.228 35.47 919.228 33.37C919.228 31.27 917.848 29.575 915.643 29.575C913.438 29.575 912.058 31.27 912.058 33.37C912.058 35.47 913.438 37.18 915.643 37.18ZM915.643 36.175C914.098 36.175 913.228 34.855 913.228 33.37C913.228 31.9 914.098 30.58 915.643 30.58C917.188 30.58 918.043 31.9 918.043 33.37C918.043 34.855 917.188 36.175 915.643 36.175ZM926.132 29.755H921.062V37H922.187V30.745H926.132V29.755ZM928.15 28.72C928.57 28.72 928.915 28.39 928.915 27.97C928.915 27.55 928.57 27.205 928.15 27.205C927.745 27.205 927.4 27.55 927.4 27.97C927.4 28.39 927.745 28.72 928.15 28.72ZM928.72 37V29.755H927.595V37H928.72ZM933.784 27.94C933.784 27.565 933.454 27.25 933.079 27.25C932.704 27.25 932.374 27.565 932.374 27.94C932.374 28.33 932.704 28.645 933.079 28.645C933.454 28.645 933.784 28.33 933.784 27.94ZM930.679 27.94C930.679 27.565 930.364 27.25 929.989 27.25C929.599 27.25 929.284 27.565 929.284 27.94C929.284 28.33 929.599 28.645 929.989 28.645C930.364 28.645 930.679 28.33 930.679 27.94ZM932.089 37V29.755H930.964V37H932.089ZM941.395 37.18C942.715 37.18 943.495 36.64 944.05 35.92L943.3 35.23C942.82 35.875 942.205 36.175 941.455 36.175C939.91 36.175 938.95 34.975 938.95 33.37C938.95 31.765 939.91 30.58 941.455 30.58C942.205 30.58 942.82 30.865 943.3 31.525L944.05 30.835C943.495 30.115 942.715 29.575 941.395 29.575C939.235 29.575 937.78 31.225 937.78 33.37C937.78 35.53 939.235 37.18 941.395 37.18ZM946.752 37V33.76H950.532V37H951.657V29.755H950.532V32.77H946.752V29.755H945.627V37H946.752ZM953.498 39.835C953.708 39.895 954.083 39.94 954.323 39.94C955.283 39.925 956.018 39.52 956.453 38.47L960.083 29.755H958.853L956.453 35.695L954.038 29.755H952.823L955.853 37.075L955.373 38.17C955.118 38.77 954.788 38.935 954.293 38.935C954.113 38.935 953.843 38.89 953.678 38.815L953.498 39.835ZM968.049 33.865V32.875H964.449V33.865H968.049ZM980.043 37V35.89H975.138C977.928 33.685 979.998 31.825 979.998 29.785C979.998 27.79 978.303 26.845 976.638 26.845C975.228 26.845 973.923 27.415 973.158 28.42L973.923 29.215C974.508 28.465 975.438 27.955 976.638 27.955C977.673 27.955 978.723 28.51 978.723 29.785C978.723 31.51 976.773 33.175 973.173 36.01V37H980.043ZM985.772 37.18C988.502 37.18 989.597 34.435 989.597 32.005C989.597 29.56 988.502 26.845 985.772 26.845C983.027 26.845 981.947 29.56 981.947 32.005C981.947 34.435 983.027 37.18 985.772 37.18ZM985.772 36.07C983.867 36.07 983.222 34 983.222 32.005C983.222 30.01 983.867 27.955 985.772 27.955C987.677 27.955 988.322 30.01 988.322 32.005C988.322 34 987.677 36.07 985.772 36.07ZM998.046 37V35.89H993.141C995.931 33.685 998.001 31.825 998.001 29.785C998.001 27.79 996.306 26.845 994.641 26.845C993.231 26.845 991.926 27.415 991.161 28.42L991.926 29.215C992.511 28.465 993.441 27.955 994.641 27.955C995.676 27.955 996.726 28.51 996.726 29.785C996.726 31.51 994.776 33.175 991.176 36.01V37H998.046ZM1006.86 37V35.89H1001.96C1004.75 33.685 1006.82 31.825 1006.82 29.785C1006.82 27.79 1005.12 26.845 1003.46 26.845C1002.05 26.845 1000.74 27.415 999.98 28.42L1000.74 29.215C1001.33 28.465 1002.26 27.955 1003.46 27.955C1004.49 27.955 1005.54 28.51 1005.54 29.785C1005.54 31.51 1003.59 33.175 999.995 36.01V37H1006.86ZM1009.73 37.15C1010.18 37.15 1010.55 36.775 1010.55 36.325C1010.55 35.875 1010.18 35.5 1009.73 35.5C1009.28 35.5 1008.9 35.875 1008.9 36.325C1008.9 36.775 1009.28 37.15 1009.73 37.15ZM1021.06 37C1022.89 37 1023.95 35.905 1023.95 34.3C1023.95 33.1 1023.07 32.005 1022 31.84C1022.92 31.645 1023.76 30.805 1023.76 29.545C1023.76 28.045 1022.69 26.995 1020.95 26.995H1016.5V37H1021.06ZM1020.74 31.33H1017.74V28.105H1020.74C1021.87 28.105 1022.47 28.825 1022.47 29.725C1022.47 30.64 1021.87 31.33 1020.74 31.33ZM1020.8 35.89H1017.74V32.44H1020.8C1022.03 32.44 1022.66 33.25 1022.66 34.165C1022.66 35.23 1021.97 35.89 1020.8 35.89ZM1029.08 37.18C1030.4 37.18 1031.18 36.64 1031.74 35.92L1030.99 35.23C1030.51 35.875 1029.89 36.175 1029.14 36.175C1027.6 36.175 1026.64 34.975 1026.64 33.37C1026.64 31.765 1027.6 30.58 1029.14 30.58C1029.89 30.58 1030.51 30.865 1030.99 31.525L1031.74 30.835C1031.18 30.115 1030.4 29.575 1029.08 29.575C1026.92 29.575 1025.47 31.225 1025.47 33.37C1025.47 35.53 1026.92 37.18 1029.08 37.18ZM1033.87 28.72C1034.29 28.72 1034.63 28.39 1034.63 27.97C1034.63 27.55 1034.29 27.205 1033.87 27.205C1033.46 27.205 1033.12 27.55 1033.12 27.97C1033.12 28.39 1033.46 28.72 1033.87 28.72ZM1034.44 37V29.755H1033.31V37H1034.44ZM1046.58 37V29.755H1040.55V37H1041.67V30.745H1045.45V37H1046.58ZM1052.4 37.18C1054.3 37.18 1055.62 35.71 1055.62 33.37C1055.62 31.015 1054.3 29.575 1052.4 29.575C1051.38 29.575 1050.48 30.1 1049.95 30.835V29.755H1048.83V39.76H1049.95V35.905C1050.54 36.715 1051.41 37.18 1052.4 37.18ZM1052.11 36.175C1051.23 36.175 1050.34 35.635 1049.95 35.005V31.735C1050.34 31.105 1051.23 30.58 1052.11 30.58C1053.57 30.58 1054.44 31.765 1054.44 33.37C1054.44 34.975 1053.57 36.175 1052.11 36.175ZM1063.06 37V32.02C1063.06 30.265 1061.79 29.575 1060.26 29.575C1059.07 29.575 1058.14 29.965 1057.36 30.775L1057.89 31.555C1058.53 30.865 1059.24 30.55 1060.11 30.55C1061.16 30.55 1061.94 31.105 1061.94 32.08V33.385C1061.35 32.71 1060.53 32.395 1059.54 32.395C1058.31 32.395 1057 33.16 1057 34.78C1057 36.355 1058.31 37.18 1059.54 37.18C1060.51 37.18 1061.34 36.835 1061.94 36.175V37H1063.06ZM1059.94 36.37C1058.89 36.37 1058.16 35.71 1058.16 34.795C1058.16 33.865 1058.89 33.205 1059.94 33.205C1060.74 33.205 1061.5 33.505 1061.94 34.105V35.47C1061.5 36.07 1060.74 36.37 1059.94 36.37ZM1069.38 37C1070.72 37 1071.5 36.205 1071.5 35.035C1071.5 34.21 1070.91 33.445 1070.18 33.265C1070.79 33.07 1071.35 32.485 1071.35 31.615C1071.35 30.52 1070.58 29.755 1069.31 29.755H1065.32V37H1069.38ZM1069.16 36.01H1066.44V33.775H1069.16C1069.92 33.775 1070.33 34.315 1070.33 34.9C1070.33 35.59 1069.88 36.01 1069.16 36.01ZM1069.11 32.785H1066.44V30.745H1069.11C1069.8 30.745 1070.19 31.15 1070.19 31.78C1070.19 32.35 1069.82 32.785 1069.11 32.785ZM1079.28 37V32.02C1079.28 30.265 1078.01 29.575 1076.48 29.575C1075.29 29.575 1074.36 29.965 1073.58 30.775L1074.11 31.555C1074.75 30.865 1075.46 30.55 1076.33 30.55C1077.38 30.55 1078.16 31.105 1078.16 32.08V33.385C1077.57 32.71 1076.75 32.395 1075.76 32.395C1074.53 32.395 1073.22 33.16 1073.22 34.78C1073.22 36.355 1074.53 37.18 1075.76 37.18C1076.73 37.18 1077.56 36.835 1078.16 36.175V37H1079.28ZM1076.16 36.37C1075.11 36.37 1074.38 35.71 1074.38 34.795C1074.38 33.865 1075.11 33.205 1076.16 33.205C1076.96 33.205 1077.72 33.505 1078.16 34.105V35.47C1077.72 36.07 1076.96 36.37 1076.16 36.37ZM1087.97 37.18C1090.05 37.18 1091.28 36.28 1091.28 35.065C1091.28 33.865 1090.02 33.355 1089.18 33.295C1090.04 33.19 1091.13 32.605 1091.13 31.525C1091.13 30.295 1089.75 29.575 1087.8 29.59C1086.48 29.59 1085.51 30.055 1084.83 30.745L1085.42 31.435C1086.03 30.805 1086.83 30.505 1087.85 30.505C1089.05 30.505 1089.96 30.97 1089.96 31.66C1089.96 32.485 1089.02 32.875 1087.82 32.875H1086.2V33.79H1087.82C1089.09 33.79 1090.1 34.09 1090.1 34.99C1090.1 35.755 1089.26 36.25 1087.97 36.25C1086.89 36.25 1085.93 35.92 1085.25 35.275L1084.7 35.995C1085.42 36.715 1086.51 37.18 1087.97 37.18ZM1098.76 37V32.02C1098.76 30.265 1097.49 29.575 1095.96 29.575C1094.77 29.575 1093.84 29.965 1093.06 30.775L1093.59 31.555C1094.23 30.865 1094.94 30.55 1095.81 30.55C1096.86 30.55 1097.64 31.105 1097.64 32.08V33.385C1097.05 32.71 1096.23 32.395 1095.24 32.395C1094.01 32.395 1092.7 33.16 1092.7 34.78C1092.7 36.355 1094.01 37.18 1095.24 37.18C1096.21 37.18 1097.04 36.835 1097.64 36.175V37H1098.76ZM1095.64 36.37C1094.59 36.37 1093.86 35.71 1093.86 34.795C1093.86 33.865 1094.59 33.205 1095.64 33.205C1096.44 33.205 1097.2 33.505 1097.64 34.105V35.47C1097.2 36.07 1096.44 36.37 1095.64 36.37ZM1107.02 37L1104.23 33.28L1106.85 29.755H1105.55L1103.54 32.515L1101.53 29.755H1100.22L1102.85 33.28L1100.07 37H1101.36L1103.54 34.03L1105.71 37H1107.02ZM1109.39 37L1113.22 31.36V37H1114.34V29.755H1113.23L1109.44 35.29V29.755H1108.31V37H1109.39ZM1124.96 29.755V36.01H1121.9V29.755H1120.77V36.01H1117.71V29.755H1116.59V37H1125.89V38.845H1127.01V36.01H1126.08V29.755H1124.96ZM1131.83 37.18C1133.01 37.18 1133.99 36.79 1134.71 36.07L1134.17 35.335C1133.6 35.92 1132.76 36.25 1131.93 36.25C1130.37 36.25 1129.41 35.11 1129.32 33.745H1135.19V33.46C1135.19 31.285 1133.9 29.575 1131.71 29.575C1129.64 29.575 1128.14 31.27 1128.14 33.37C1128.14 35.635 1129.68 37.18 1131.83 37.18ZM1134.08 32.92H1129.32C1129.38 31.81 1130.15 30.505 1131.69 30.505C1133.34 30.505 1134.06 31.84 1134.08 32.92ZM1138.13 37V33.76H1141.91V37H1143.04V29.755H1141.91V32.77H1138.13V29.755H1137.01V37H1138.13ZM1145.84 28.72C1146.26 28.72 1146.61 28.39 1146.61 27.97C1146.61 27.55 1146.26 27.205 1145.84 27.205C1145.44 27.205 1145.09 27.55 1145.09 27.97C1145.09 28.39 1145.44 28.72 1145.84 28.72ZM1146.41 37V29.755H1145.29V37H1146.41ZM1149.25 37.15C1149.7 37.15 1150.08 36.775 1150.08 36.325C1150.08 35.875 1149.7 35.5 1149.25 35.5C1148.8 35.5 1148.43 35.875 1148.43 36.325C1148.43 36.775 1148.8 37.15 1149.25 37.15Z" fill="#B1B1B1"/>
<line x2="1920" stroke="#3D3D3D" stroke-width="2"/>
</g>
<defs>
<clipPath id="clip0_686_3490">
<rect width="1920" height="63" fill="white"/>
</clipPath>
</defs>
</svg>
