<svg width="18" height="18" viewBox="0 0 18 18" fill="none" xmlns="http://www.w3.org/2000/svg">
<path d="M8.58025 0.354315C4.00824 0.571815 0.400332 4.37947 0.414102 8.95652C0.418321 10.3506 0.754883 11.6664 1.34867 12.8293L0.437129 17.2539C0.387852 17.4933 0.603711 17.7029 0.841484 17.6466L5.17713 16.6194C6.29105 17.1744 7.54221 17.4947 8.86631 17.515C13.5393 17.5864 17.4357 13.876 17.5815 9.20467C17.7375 4.19736 13.6049 0.114959 8.58025 0.354315ZM13.7537 13.6837C12.484 14.9534 10.7957 15.6527 8.99996 15.6527C7.94855 15.6527 6.9418 15.4168 6.00781 14.9516L5.40418 14.6508L2.74578 15.2805L3.30529 12.5643L3.00793 11.9817C2.52301 11.0321 2.27715 10.0055 2.27715 8.92992C2.27715 7.13414 2.97646 5.44599 4.24613 4.17621C5.50449 2.91773 7.22029 2.20723 9.00008 2.20723C10.7956 2.20723 12.4839 2.90654 13.7536 4.17621C15.0233 5.44588 15.7226 7.1342 15.7226 8.92975C15.7227 10.7096 15.0121 12.4253 13.7537 13.6837Z" fill="white"/>
<path d="M13.1665 10.7919L11.5034 10.3144C11.2849 10.2518 11.0494 10.3138 10.8901 10.4762L10.4833 10.8904C10.3118 11.0653 10.0517 11.1213 9.8247 11.0295C9.03796 10.7111 7.38298 9.23959 6.96058 8.50377C6.83847 8.29142 6.85868 8.02611 7.00845 7.83217L7.36341 7.37285C7.50251 7.19297 7.53181 6.95115 7.43988 6.74314L6.74021 5.16064C6.57263 4.78166 6.08829 4.67127 5.77183 4.93892C5.30771 5.33156 4.75699 5.92799 4.69013 6.58892C4.57206 7.75418 5.07187 9.22295 6.96134 10.9867C9.14437 13.0245 10.8926 13.2935 12.031 13.0178C12.6767 12.8615 13.1927 12.2347 13.5181 11.7213C13.7402 11.3711 13.5647 10.9063 13.1665 10.7919Z" fill="white"/>
</svg>
